<!DOCTYPE svg PUBLIC "-//W3C//DTD SVG 20010904//EN" "http://www.w3.org/TR/2001/REC-SVG-20010904/DTD/svg10.dtd">
<svg version="1.0" xmlns="http://www.w3.org/2000/svg" width="349px" height="356px" viewBox="0 0 3490 3560" preserveAspectRatio="xMidYMid meet">
<g id="layer101" fill="#b15656" stroke="none">
 <path d="M1600 3504 c-43 -8 -280 -64 -405 -95 -158 -40 -496 -145 -665 -206 l-135 -49 -86 -255 c-169 -502 -269 -922 -269 -1129 0 -211 118 -701 281 -1170 28 -80 56 -160 62 -178 6 -18 20 -38 31 -44 75 -40 690 -230 896 -277 52 -12 133 -32 180 -44 72 -19 112 -22 265 -22 170 0 188 2 320 34 276 66 474 121 695 195 319 105 338 113 354 144 23 45 166 479 166 504 0 13 9 52 20 88 86 277 150 605 150 765 0 138 -33 330 -100 590 -28 105 -55 210 -61 235 -44 179 -172 550 -194 566 -21 16 -495 173 -658 219 -71 20 -215 56 -320 81 -177 42 -204 46 -347 49 -85 2 -166 1 -180 -1z m321 -254 c29 -6 57 -16 61 -23 15 -21 -1 -97 -33 -167 -23 -50 -51 -88 -110 -146 l-79 -79 -90 90 c-72 71 -94 101 -113 150 -50 126 -44 159 33 174 63 12 267 13 331 1z m-626 -142 c9 -40 34 -110 55 -155 31 -67 56 -101 134 -181 53 -54 96 -103 96 -108 0 -5 -162 -171 -360 -369 l-359 -359 -89 86 c-102 101 -204 157 -334 185 -43 9 -78 20 -78 25 0 30 71 272 162 550 l62 188 180 59 c211 70 474 149 498 150 12 1 20 -16 33 -71z m1098 32 c78 -23 230 -70 338 -106 l197 -65 15 -42 c58 -163 142 -431 185 -592 l30 -111 -79 -16 c-126 -26 -229 -82 -334 -181 l-90 -85 -70 66 c-38 37 -203 201 -365 364 l-294 298 102 103 c83 85 108 118 137 180 34 73 65 173 65 209 0 10 5 18 11 18 6 0 74 -18 152 -40z m87 -1374 c0 -11 -662 -678 -701 -706 l-25 -19 -364 364 -365 365 365 365 365 365 362 -362 c200 -200 363 -367 363 -372z m-2067 199 c32 -8 77 -24 100 -36 49 -25 167 -137 167 -159 0 -9 -28 -43 -62 -77 -69 -68 -163 -119 -238 -129 -71 -10 -81 9 -88 149 -6 142 3 222 29 248 23 23 20 23 92 4z m2764 9 c35 -9 47 -64 47 -204 0 -146 -12 -197 -51 -206 -28 -7 -114 16 -176 48 -35 17 -167 142 -167 157 0 3 33 39 73 78 52 51 89 78 132 96 86 36 107 40 142 31z m-1954 -732 c196 -197 357 -364 357 -370 0 -7 -46 -61 -103 -120 -93 -97 -107 -118 -141 -198 -21 -49 -40 -111 -43 -137 -4 -29 -12 -51 -20 -54 -21 -8 -466 125 -650 193 l-41 16 -71 217 c-38 119 -79 248 -90 286 -30 104 -61 223 -61 233 0 5 20 12 44 15 59 8 158 43 227 79 32 17 90 64 139 113 47 47 87 85 90 85 3 0 166 -161 363 -358z m1669 155 c75 -37 160 -65 218 -73 l48 -6 -33 -127 c-38 -141 -142 -474 -177 -565 l-23 -59 -175 -58 c-195 -65 -479 -149 -502 -149 -11 0 -19 18 -27 60 -14 69 -60 187 -92 233 -13 18 -63 74 -113 125 l-90 93 364 364 364 364 91 -88 c55 -52 114 -98 147 -114z m-1055 -769 c78 -76 123 -148 144 -232 19 -74 9 -92 -59 -107 -73 -16 -260 -16 -333 0 -66 14 -74 29 -58 99 17 78 59 145 142 230 45 45 83 82 85 82 2 0 38 -33 79 -72z"/>
 </g>

</svg>